<svg width="16" height="16" viewBox="0 0 16 16" fill="none" xmlns="http://www.w3.org/2000/svg">
  <path d="M3 2.5C3 1.67157 3.67157 1 4.5 1H11.5C12.3284 1 13 1.67157 13 2.5V13.5C13 14.3284 12.3284 15 11.5 15H4.5C3.67157 15 3 14.3284 3 13.5V2.5Z" fill="black"/>
  <path d="M9.5 10.5C9.5 11.6046 8.60457 12.5 7.5 12.5C6.39543 12.5 5.5 11.6046 5.5 10.5C5.5 9.39543 6.39543 8.5 7.5 8.5C8.05228 8.5 8.55228 8.71071 8.91421 9.06569C9.14645 9.2929 9.31928 9.57433 9.41014 9.89181C9.47329 10.0873 9.5 10.2953 9.5 10.5Z" fill="white"/>
  <path d="M8 5.5C8 5.22386 8.22386 5 8.5 5C8.77614 5 9 5.22386 9 5.5C9 5.77614 8.77614 6 8.5 6C8.22386 6 8 5.77614 8 5.5Z" fill="white"/>
</svg> 